<?xml version="1.0" encoding="UTF-8"?>
<svg xmlns="http://www.w3.org/2000/svg" width="580" height="1000" viewBox="0 0 580 1000">
<title>Taro card back</title>
<desc>Ochre double frame and a symmetric star ornament on a blue field. Source: CardBack.dc.html. Tokens: color.card.back #23308F, color.card.frame (dark) #D4A63A. Corner radius 40 (radius.card at 580 px width).</desc>
<defs><clipPath id="card"><rect width="580" height="1000" rx="40"/></clipPath></defs>
<g clip-path="url(#card)">
<rect width="580" height="1000" fill="#23308F"/>
<g fill="none" stroke="#D4A63A" stroke-linecap="round" stroke-linejoin="round">
<rect x="28" y="28" width="524" height="944" rx="20" stroke-width="6"></rect>
<rect x="44" y="44" width="492" height="912" rx="10" stroke-width="2"></rect>
<path d="M84 64L104 84L84 104L64 84Z M496 64L516 84L496 104L476 84Z M84 896L104 916L84 936L64 916Z M496 896L516 916L496 936L476 916Z" stroke-width="2"></path>
<path d="M290 192V262 M290 738V808 M104 84H240 M340 84H476 M104 916H240 M340 916H476" stroke-width="2"></path>
<circle cx="290" cy="500" r="206" stroke-width="2"></circle>
<circle cx="290" cy="500" r="160" stroke-width="4"></circle>
<circle cx="290" cy="500" r="154" stroke-width="1.5"></circle>
<path d="M454.8 532.8L492.0 540.2M429.7 593.3L461.3 614.4M383.3 639.7L404.4 671.3M322.8 664.8L330.2 702.0M257.2 664.8L249.8 702.0M196.7 639.7L175.6 671.3M150.3 593.3L118.7 614.4M125.2 532.8L88.0 540.2M125.2 467.2L88.0 459.8M150.3 406.7L118.7 385.6M196.7 360.3L175.6 328.7M257.2 335.2L249.8 298.0M322.8 335.2L330.2 298.0M383.3 360.3L404.4 328.7M429.7 406.7L461.3 385.6M454.8 467.2L492.0 459.8" stroke-width="3"></path>
<path d="M290.0 350.0 L313.7 442.7 L396.1 393.9 L347.3 476.3 L440.0 500.0 L347.3 523.7 L396.1 606.1 L313.7 557.3 L290.0 650.0 L266.3 557.3 L183.9 606.1 L232.7 523.7 L140.0 500.0 L232.7 476.3 L183.9 393.9 L266.3 442.7Z" stroke-width="3"></path>
<circle cx="290" cy="500" r="80" stroke-width="1.5"></circle>
</g>
<g fill="#D4A63A">
<path d="M290.0 430.0 L301.5 472.3 L339.5 450.5 L317.7 488.5 L360.0 500.0 L317.7 511.5 L339.5 549.5 L301.5 527.7 L290.0 570.0 L278.5 527.7 L240.5 549.5 L262.3 511.5 L220.0 500.0 L262.3 488.5 L240.5 450.5 L278.5 472.3Z"></path>
<path d="M290.0 116.0 L295.4 137.1 L314.0 126.0 L302.9 144.6 L324.0 150.0 L302.9 155.4 L314.0 174.0 L295.4 162.9 L290.0 184.0 L284.6 162.9 L266.0 174.0 L277.1 155.4 L256.0 150.0 L277.1 144.6 L266.0 126.0 L284.6 137.1Z"></path>
<path d="M290.0 816.0 L295.4 837.1 L314.0 826.0 L302.9 844.6 L324.0 850.0 L302.9 855.4 L314.0 874.0 L295.4 862.9 L290.0 884.0 L284.6 862.9 L266.0 874.0 L277.1 855.4 L256.0 850.0 L277.1 844.6 L266.0 826.0 L284.6 837.1Z"></path>
<circle cx="290" cy="500" r="7" fill="#23308F"></circle>
<circle cx="516.0" cy="500.0" r="4"></circle><circle cx="508.3" cy="558.5" r="4"></circle><circle cx="485.7" cy="613.0" r="4"></circle><circle cx="449.8" cy="659.8" r="4"></circle><circle cx="403.0" cy="695.7" r="4"></circle><circle cx="348.5" cy="718.3" r="4"></circle><circle cx="290.0" cy="726.0" r="4"></circle><circle cx="231.5" cy="718.3" r="4"></circle><circle cx="177.0" cy="695.7" r="4"></circle><circle cx="130.2" cy="659.8" r="4"></circle><circle cx="94.3" cy="613.0" r="4"></circle><circle cx="71.7" cy="558.5" r="4"></circle><circle cx="64.0" cy="500.0" r="4"></circle><circle cx="71.7" cy="441.5" r="4"></circle><circle cx="94.3" cy="387.0" r="4"></circle><circle cx="130.2" cy="340.2" r="4"></circle><circle cx="177.0" cy="304.3" r="4"></circle><circle cx="231.5" cy="281.7" r="4"></circle><circle cx="290.0" cy="274.0" r="4"></circle><circle cx="348.5" cy="281.7" r="4"></circle><circle cx="403.0" cy="304.3" r="4"></circle><circle cx="449.8" cy="340.2" r="4"></circle><circle cx="485.7" cy="387.0" r="4"></circle><circle cx="508.3" cy="441.5" r="4"></circle>
</g>
</g>
</svg>
